<?xml version="1.0" encoding="utf-8"?>
<!-- Generator: Adobe Illustrator 25.4.1, SVG Export Plug-In . SVG Version: 6.00 Build 0)  -->
<svg version="1.1" id="Capa_1" xmlns="http://www.w3.org/2000/svg" xmlns:xlink="http://www.w3.org/1999/xlink" x="0px" y="0px"
	 viewBox="0 0 1920 1080" style="enable-background:new 0 0 1920 1080;" xml:space="preserve">
<style type="text/css">
	.st0{fill:#0052A1;}
	.st1{fill:#233645;}
	.st2{fill:#FFFFFF;}
	.st3{fill:none;}
</style>
<path class="st0" d="M1274.85,872H851.94c-4.69,0-8.49-3.8-8.49-8.49v-86.49c0-4.69,3.8-8.49,8.49-8.49h422.91
	c4.69,0,8.49,3.8,8.49,8.49v86.49C1283.34,868.2,1279.54,872,1274.85,872z"/>
<path class="st1" d="M1012.54,215.3l-91.16,517.7c-0.47,2.66,1.58,5.1,4.28,5.1h148.26c4.28,0,7.95-3.08,8.69-7.3l71.5-406.02
	c0.74-4.22,4.41-7.3,8.69-7.3h26.69c5.49,0,9.64,4.95,8.69,10.36l-35.41,201.12c-0.95,5.4,3.21,10.36,8.69,10.36h108.45
	c24.22,0,44.94-17.39,49.14-41.24l42.83-243.26c4.3-24.42-14.49-46.81-39.29-46.81h-311.37
	C1016.95,208,1013.28,211.08,1012.54,215.3z"/>
<path class="st1" d="M894.85,208H750.69h-4.03h-27.22c-47.07,0-87.35,33.8-95.51,80.16l-77.34,439.23
	c-0.98,5.58,3.31,10.7,8.98,10.7h110.69c4.97,0,9.22-3.57,10.09-8.46l19.6-111.3c1.22-6.92,7.23-11.96,14.25-11.96h44.72
	c8.99,0,15.81,8.11,14.26,16.97l-18.73,107.01c-0.71,4.04,2.4,7.75,6.51,7.75h110.01c5.88,0,10.89-4.26,11.84-10.06l73.88-451.97
	C958.51,240.39,930.98,208,894.85,208z M783.34,496.89H728.8c-5.9,0-10.37-5.33-9.35-11.14l28.25-160.43
	c0.8-4.54,4.74-7.84,9.35-7.84h54.38c5.9,0,10.36,5.32,9.35,11.13l-28.09,160.43C791.89,493.58,787.95,496.89,783.34,496.89z"/>
<path class="st0" d="M1276.92,738.08l-107.36-0.19c-5.92-0.01-11.29-3.47-13.75-8.86l-34.39-75.46c-2.85-6.26-1.56-13.63,3.24-18.55
	l61.99-63.43c3.03-3.1,7.18-4.84,11.51-4.84h104.74c7.18,0,12.62,6.47,11.38,13.54l-25.95,148.23
	C1287.35,734.05,1282.54,738.09,1276.92,738.08z"/>
<g>
	<path class="st2" d="M1192.07,670.67l3.46-25.03c1.48-10.68,7.46-17.1,21.22-17.1h8.26c12.18,0,17.18,6.09,15.75,16.44
		c-0.15,1.08-0.81,1.67-1.9,1.67h-6.09c-1,0-1.67-0.59-1.52-1.67c0.79-5.67-2.92-7.84-8.09-7.84h-6.93
		c-6.51,0-10.34,2.33-11.22,8.68l-3.42,24.69c-0.89,6.42,2.3,8.68,8.81,8.68h6.93c5.17,0,9.45-2,10.24-7.67
		c0.15-1.08,0.98-1.67,1.98-1.67h6.09c1.08,0,1.59,0.58,1.44,1.67c-1.42,10.26-8.09,16.27-20.28,16.27h-8.26
		C1194.8,687.77,1190.6,681.35,1192.07,670.67z"/>
	<path class="st2" d="M1244.66,686.1l5.54-40.05c1.48-10.68,7.46-17.1,22.06-17.1h9.68c1.08,0,1.59,0.59,1.44,1.67l-0.69,5
		c-0.15,1.08-0.82,1.67-1.9,1.67h-9.01c-7.34,0-11.16,2.25-12.08,8.93l-5.52,39.88c-0.15,1.08-0.82,1.67-1.9,1.67h-6.18
		C1245.01,687.77,1244.51,687.19,1244.66,686.1z"/>
</g>
<g>
	<path class="st1" d="M548.3,848.2l6.49-38.45c2.4-14.5,4.89-16.42,15.46-16.42h3.12c10.73,0,13.3,1.92,15.7,16.42l6.49,38.45
		c0.24,1.52-0.56,1.6-1.6,1.6h-5.93c-1.04,0-1.36-0.16-1.6-1.6l-1.76-10.66H559.2l-1.76,10.66c-0.24,1.6-0.56,1.6-1.6,1.6h-5.93
		C548.86,849.8,548.06,849.8,548.3,848.2z M583.47,830.26l-3.45-20.35c-1.52-9.05-3.44-9.13-7.29-9.13h-1.84
		c-3.69,0-5.53,0.08-7.05,9.13l-3.44,20.35H583.47z"/>
	<path class="st1" d="M603.89,833.78v-38.45c0-1.04,0.56-1.6,1.6-1.6h5.93c1.04,0,1.6,0.56,1.6,1.6v38.29
		c0,6.09,3.37,8.33,9.21,8.33h6.65c5.85,0,9.29-2.24,9.29-8.33v-38.29c0-1.04,0.56-1.6,1.6-1.6h5.93c1.04,0,1.6,0.56,1.6,1.6v38.45
		c0,10.25-4.97,16.42-17.78,16.42h-7.93C608.78,850.2,603.89,844.04,603.89,833.78z"/>
	<path class="st1" d="M672.46,848.2v-46.46h-15.3c-1.04,0-1.6-0.56-1.6-1.6v-4.8c0-1.04,0.56-1.6,1.6-1.6h39.73
		c1.04,0,1.6,0.56,1.6,1.6v4.8c0,1.04-0.56,1.6-1.6,1.6h-15.3v46.46c0,1.04-0.56,1.6-1.6,1.6h-5.93
		C673.02,849.8,672.46,849.24,672.46,848.2z"/>
	<path class="st1" d="M705.62,833.78v-24.03c0-10.25,4.89-16.42,18.91-16.42h7.93c14.02,0,18.98,6.17,18.98,16.42v24.03
		c0,10.25-4.96,16.42-18.98,16.42h-7.93C710.51,850.2,705.62,844.04,705.62,833.78z M725.17,841.95h6.65
		c7.05,0,10.49-2.16,10.49-8.33v-23.71c0-6.09-3.44-8.33-10.49-8.33h-6.65c-7.05,0-10.41,2.24-10.41,8.33v23.71
		C714.75,839.79,718.12,841.95,725.17,841.95z"/>
	<path class="st1" d="M760.17,835.62c0-1.04,0.56-1.6,1.6-1.6h5.69c1.04,0,1.84,0.56,1.84,1.6c0,5.45,3.85,7.13,10.33,7.13h5.21
		c6.41,0,10.25-1.84,10.25-8.73c0-5.37-1.68-6.09-10.73-7.21l-4.32-0.56c-16.02-2.08-19.07-8.09-19.07-16.58
		c0-10.01,6.33-16.34,18.26-16.34h5.85c11.7,0,17.86,5.21,17.86,14.74c0,1.04-0.56,1.6-1.6,1.6h-5.69c-1.04,0-1.84-0.56-1.84-1.6
		c0-5.29-3.44-7.29-9.53-7.29h-4.41c-6.17,0-9.77,2.08-9.77,8.89c0,5.21,1.44,7.13,9.93,8.25l4.32,0.56
		c14.02,1.84,19.87,3.53,19.87,15.54c0,11.05-5.93,16.18-18.19,16.18h-7.69C766.1,850.2,760.17,845.16,760.17,835.62z"/>
	<path class="st2" d="M872.31,848.2v-52.87c0-1.04,0.56-1.6,1.6-1.6h5.93c0.08,0,0.08,0,0.08,0h16.74
		c14.02,0,18.91,6.17,18.91,16.42v9.13c0,10.25-4.89,16.42-18.91,16.42h-15.22v12.5c0,1.04-0.56,1.6-1.6,1.6h-5.93
		C872.87,849.8,872.31,849.24,872.31,848.2z M896.02,828.25c7.05,0,10.41-2.24,10.41-8.57v-9.93c0-6.25-3.37-8.57-10.41-8.57h-14.58
		v27.08H896.02z"/>
	<path class="st2" d="M925.57,848.2v-52.87c0-1.04,0.56-1.6,1.6-1.6h5.93c0.08,0,0.08,0,0.08,0h16.74
		c14.02,0,18.91,6.17,18.91,16.42v6.73c0,6.89-2.32,11.94-8.17,14.5l7.37,16.58c0.48,1.12-0.08,1.84-1.28,1.84h-6.17
		c-0.88,0-1.6-0.4-1.92-1.2l-6.81-15.38c-0.8,0.08-1.6,0.08-2.4,0.08h-14.74v14.9c0,1.04-0.56,1.6-1.6,1.6h-5.93
		C926.14,849.8,925.57,849.24,925.57,848.2z M949.29,826.09c7.05,0,10.41-2.16,10.41-8.33v-8.25c0-6.09-3.37-8.33-10.41-8.33h-14.58
		v24.91H949.29z"/>
	<path class="st2" d="M975.96,833.38v-23.23c0-10.25,4.89-16.42,18.91-16.42h18.1c1.04,0,1.6,0.56,1.6,1.6v4.8
		c0,1.04-0.56,1.6-1.6,1.6H995.5c-7.05,0-10.41,2.24-10.41,8.57v7.21h26.27c1.04,0,1.6,0.56,1.6,1.6v4.81c0,1.04-0.56,1.6-1.6,1.6
		h-26.27v7.69c0,6.41,3.36,8.57,10.41,8.57h17.46c1.04,0,1.6,0.56,1.6,1.6v4.81c0,1.04-0.56,1.6-1.6,1.6h-18.1
		C980.85,849.8,975.96,843.63,975.96,833.38z"/>
	<path class="st2" d="M1023.78,848.2v-38.45c0-10.25,3.28-16.42,18.1-16.42h4.8c4.89,0,8.65,1.6,11.46,4.81h1.04
		c2.88-3.21,6.41-4.81,11.3-4.81h4.81c14.82,0,18.18,6.17,18.18,16.42v38.45c0,1.04-0.56,1.6-1.6,1.6h-5.93
		c-1.04,0-1.6-0.56-1.6-1.6v-38.29c0-7.69-3.45-8.33-9.69-8.33h-2.48c-5.53,0-8.97,1.28-8.97,8.17v38.45c0,1.04-0.56,1.6-1.6,1.6
		h-5.93c-1.04,0-1.6-0.56-1.6-1.6v-38.29c0-7.05-3.44-8.33-8.97-8.33h-2.56c-6.25,0-9.61,0.64-9.61,8.33v38.29
		c0,1.04-0.56,1.6-1.6,1.6h-5.93C1024.34,849.8,1023.78,849.24,1023.78,848.2z"/>
	<path class="st2" d="M1106.84,848.2v-52.87c0-1.04,0.56-1.6,1.6-1.6h5.93c1.04,0,1.6,0.56,1.6,1.6v52.87c0,1.04-0.56,1.6-1.6,1.6
		h-5.93C1107.41,849.8,1106.84,849.24,1106.84,848.2z"/>
	<path class="st2" d="M1128.55,833.78v-38.45c0-1.04,0.56-1.6,1.6-1.6h5.93c1.04,0,1.6,0.56,1.6,1.6v38.29
		c0,6.09,3.36,8.33,9.21,8.33h6.65c5.85,0,9.29-2.24,9.29-8.33v-38.29c0-1.04,0.56-1.6,1.6-1.6h5.93c1.04,0,1.6,0.56,1.6,1.6v38.45
		c0,10.25-4.96,16.42-17.78,16.42h-7.93C1133.44,850.2,1128.55,844.04,1128.55,833.78z"/>
	<path class="st2" d="M1183.74,848.2v-38.45c0-10.25,3.28-16.42,18.1-16.42h4.81c4.88,0,8.65,1.6,11.45,4.81h1.04
		c2.89-3.21,6.41-4.81,11.3-4.81h4.81c14.82,0,18.18,6.17,18.18,16.42v38.45c0,1.04-0.56,1.6-1.6,1.6h-5.93
		c-1.04,0-1.6-0.56-1.6-1.6v-38.29c0-7.69-3.45-8.33-9.69-8.33h-2.48c-5.53,0-8.97,1.28-8.97,8.17v38.45c0,1.04-0.56,1.6-1.6,1.6
		h-5.93c-1.04,0-1.6-0.56-1.6-1.6v-38.29c0-7.05-3.44-8.33-8.97-8.33h-2.56c-6.25,0-9.61,0.64-9.61,8.33v38.29
		c0,1.04-0.56,1.6-1.6,1.6h-5.93C1184.3,849.8,1183.74,849.24,1183.74,848.2z"/>
</g>
<circle class="st2" cx="1143.2" cy="644.67" r="9.51"/>
<path class="st3" d="M1276.62,795.35"/>
</svg>
